<svg 
 xmlns="http://www.w3.org/2000/svg"
 xmlns:xlink="http://www.w3.org/1999/xlink"
 width="119px" height="68px">
<defs>
<linearGradient id="PSgrad_0" x1="0%" x2="60.182%" y1="0%" y2="79.864%">
  <stop offset="0%" stop-color="rgb(236,165,249)" stop-opacity="1" />
  <stop offset="100%" stop-color="rgb(191,179,245)" stop-opacity="1" />
</linearGradient>
</defs>
<path fill-rule="evenodd"  fill="rgb(0, 0, 0)"
 d="M113.133,11.900 C112.733,14.567 111.199,16.433 108.466,16.433 C105.933,16.433 104.599,14.567 104.999,11.900 C105.399,9.300 106.933,7.367 109.666,7.367 C112.199,7.367 113.533,9.300 113.133,11.900 ZM105.266,61.499 L98.799,61.499 L104.533,20.833 L110.999,20.833 L105.266,61.499 ZM95.132,61.566 L88.466,61.566 L84.733,43.766 L80.133,50.500 L78.599,61.499 L72.133,61.499 L80.66,5.500 L86.533,5.500 L81.533,40.700 L94.332,20.833 L101.266,20.833 L89.733,37.833 L95.132,61.566 ZM53.533,62.166 C44.866,62.166 41.799,55.566 43.666,41.233 C45.533,26.767 50.333,20.167 58.799,20.167 C67.532,20.167 70.599,26.767 68.732,41.233 C66.866,55.566 62.66,62.166 53.533,62.166 ZM58.266,26.167 C54.333,26.167 51.799,30.900 50.333,41.233 C48.866,51.500 49.999,56.166 53.999,56.166 C58.66,56.166 60.599,51.500 62.66,41.233 C63.532,30.900 62.333,26.167 58.266,26.167 ZM29.399,44.233 L18.133,44.233 L12.133,61.499 L5.0,61.499 L25.66,7.634 L32.132,7.634 L38.132,61.499 L31.132,61.499 L29.399,44.233 ZM27.933,30.167 C27.599,26.633 26.999,20.967 27.66,17.500 C26.133,21.33 24.199,26.500 23.199,29.500 L20.266,37.900 L28.733,37.900 L27.933,30.167 Z"/>
<path stroke-width="2px" stroke="rgb(36, 0, 255)" fill="url(#PSgrad_0)"
 d="M113.133,11.900 C112.733,14.567 111.199,16.433 108.466,16.433 C105.933,16.433 104.599,14.567 104.999,11.900 C105.399,9.300 106.933,7.367 109.666,7.367 C112.199,7.367 113.533,9.300 113.133,11.900 ZM105.266,61.499 L98.799,61.499 L104.533,20.833 L110.999,20.833 L105.266,61.499 ZM95.132,61.566 L88.466,61.566 L84.733,43.766 L80.133,50.500 L78.599,61.499 L72.133,61.499 L80.66,5.500 L86.533,5.500 L81.533,40.700 L94.332,20.833 L101.266,20.833 L89.733,37.833 L95.132,61.566 ZM53.533,62.166 C44.866,62.166 41.799,55.566 43.666,41.233 C45.533,26.767 50.333,20.167 58.799,20.167 C67.532,20.167 70.599,26.767 68.732,41.233 C66.866,55.566 62.66,62.166 53.533,62.166 ZM58.266,26.167 C54.333,26.167 51.799,30.900 50.333,41.233 C48.866,51.500 49.999,56.166 53.999,56.166 C58.66,56.166 60.599,51.500 62.66,41.233 C63.532,30.900 62.333,26.167 58.266,26.167 ZM29.399,44.233 L18.133,44.233 L12.133,61.499 L5.0,61.499 L25.66,7.634 L32.132,7.634 L38.132,61.499 L31.132,61.499 L29.399,44.233 ZM27.933,30.167 C27.599,26.633 26.999,20.967 27.66,17.500 C26.133,21.33 24.199,26.500 23.199,29.500 L20.266,37.900 L28.733,37.900 L27.933,30.167 Z"/>
</svg>